<svg xmlns="http://www.w3.org/2000/svg" xmlns:xlink="http://www.w3.org/1999/xlink" width="177" height="177" viewBox="0 0 177 177"><defs><style>.a{fill:#fff;}.b{fill:#429a2f;fill-rule:evenodd;}.c{filter:url(#a);}</style><filter id="a" x="0" y="0" width="177" height="177" filterUnits="userSpaceOnUse"><feOffset dy="12" input="SourceAlpha"/><feGaussianBlur stdDeviation="18" result="b"/><feFlood flood-color="#246b1b" flood-opacity="0.169"/><feComposite operator="in" in2="b"/><feComposite in="SourceGraphic"/></filter></defs><g transform="translate(367 -4981)"><g class="c" transform="matrix(1, 0, 0, 1, -367, 4981)"><path class="a" d="M19,0H50A19,19,0,0,1,69,19V50A19,19,0,0,1,50,69H19A19,19,0,0,1,0,50V19A19,19,0,0,1,19,0Z" transform="translate(54 42)"/></g><g transform="translate(-291.32 5044.053)"><g transform="translate(0 0)"><path class="b" d="M5.743.585a.864.864,0,0,1-.873.872A.881.881,0,0,1,4,.585V-16H5.743Z" transform="translate(1.93 26.474)"/><path class="b" d="M4.377,3.169a5.182,5.182,0,0,0-2.3,4.272,5.071,5.071,0,0,0,.054.738A6.458,6.458,0,0,0,.6,12.348a6.831,6.831,0,0,0,6.982,6.669,6.831,6.831,0,0,0,6.982-6.669,6.458,6.458,0,0,0-1.532-4.169,5.069,5.069,0,0,0,.054-.738,5.182,5.182,0,0,0-2.3-4.272q0-.052,0-.1A3.139,3.139,0,0,0,7.584,0,3.139,3.139,0,0,0,4.375,3.065Q4.375,3.117,4.377,3.169Z" transform="translate(-0.602 0)"/><path class="b" d="M12.744.585a.864.864,0,0,1-.873.872A.881.881,0,0,1,11,.585V-16h1.746Z" transform="translate(7.15 26.474)"/><path class="b" d="M11.332,7.377a3.887,3.887,0,0,0-1.722,3.2,3.8,3.8,0,0,0,.04.553A4.845,4.845,0,0,0,8.5,14.263a5.124,5.124,0,0,0,5.237,5,5.124,5.124,0,0,0,5.237-5,4.845,4.845,0,0,0-1.15-3.128,3.784,3.784,0,0,0,.04-.553,3.887,3.887,0,0,0-1.722-3.2c0-.026,0-.052,0-.078a2.41,2.41,0,0,0-4.814,0C11.33,7.325,11.33,7.351,11.332,7.377Z" transform="translate(5.287 3.729)"/></g></g></g></svg>