<svg xmlns="http://www.w3.org/2000/svg" xmlns:xlink="http://www.w3.org/1999/xlink" width="177" height="177" viewBox="0 0 177 177"><defs><style>.a{fill:#fff;}.b{fill:#389b6c;}.c{filter:url(#a);}</style><filter id="a" x="0" y="0" width="177" height="177" filterUnits="userSpaceOnUse"><feOffset dy="12" input="SourceAlpha"/><feGaussianBlur stdDeviation="18" result="b"/><feFlood flood-color="#246b1b" flood-opacity="0.169"/><feComposite operator="in" in2="b"/><feComposite in="SourceGraphic"/></filter></defs><g transform="translate(376 -4975)"><g class="c" transform="matrix(1, 0, 0, 1, -376, 4975)"><path class="a" d="M19,0H50A19,19,0,0,1,69,19V50A19,19,0,0,1,50,69H19A19,19,0,0,1,0,50V19A19,19,0,0,1,19,0Z" transform="translate(54 42)"/></g><g transform="translate(-205.383 5140.718)"><g transform="translate(-94.937 -99.984)"><g transform="translate(0)"><path class="b" d="M30.285,12.746V9.468A.468.468,0,0,0,29.817,9H5.468A.468.468,0,0,0,5,9.468v3.278Z" transform="translate(-5 -9)"/><path class="b" d="M5,19V35.388a.468.468,0,0,0,.468.468H29.817a.468.468,0,0,0,.468-.468V19Zm22.382,8.241a.467.467,0,0,1-.655.094l-3.35-2.513-3.472,5.207a.459.459,0,0,1-.405.208A.468.468,0,0,1,19.109,30l-3.34-5.844L12.43,30a.468.468,0,0,1-.687.142L8,27.335a.468.468,0,1,1,.562-.749l3.322,2.491,3.483-6.1a.487.487,0,0,1,.813,0l3.37,5.9,3.326-4.988a.468.468,0,0,1,.671-.115l3.746,2.809A.467.467,0,0,1,27.382,27.241Z" transform="translate(-5 -14.318)"/></g></g></g></g></svg>