<svg xmlns="http://www.w3.org/2000/svg" xmlns:xlink="http://www.w3.org/1999/xlink" width="177" height="177" viewBox="0 0 177 177"><defs><style>.a{fill:#fff;}.b{fill:#ffb552;}.c{filter:url(#a);}</style><filter id="a" x="0" y="0" width="177" height="177" filterUnits="userSpaceOnUse"><feOffset dy="12" input="SourceAlpha"/><feGaussianBlur stdDeviation="18" result="b"/><feFlood flood-color="#246b1b" flood-opacity="0.169"/><feComposite operator="in" in2="b"/><feComposite in="SourceGraphic"/></filter></defs><g transform="translate(366 -4981)"><g class="c" transform="matrix(1, 0, 0, 1, -366, 4981)"><path class="a" d="M19,0H50A19,19,0,0,1,69,19V50A19,19,0,0,1,50,69H19A19,19,0,0,1,0,50V19A19,19,0,0,1,19,0Z" transform="translate(54 42)"/></g><g transform="translate(-306.5 5036)"><path class="b" d="M30.211,5A11.71,11.71,0,0,0,18.5,16.711a13.491,13.491,0,0,0,2.194,7.361l9.518,14.388,9.518-14.388a13.4,13.4,0,0,0,2.194-7.361A11.71,11.71,0,0,0,30.211,5Zm0,16.173a4.461,4.461,0,1,1,4.461-4.461A4.475,4.475,0,0,1,30.211,21.173Z" transform="translate(-1)"/></g></g></svg>