<svg xmlns="http://www.w3.org/2000/svg" width="11" height="91" viewBox="0 0 11 91"><defs><style>.a{fill:#429a2f;}</style></defs><g transform="translate(-0.106 0.284)"><rect class="a" width="11" height="45" rx="5.5" transform="translate(0.106 -0.284)"/><path class="a" d="M5.5,0A5.5,5.5,0,0,1,11,5.5v8a5.5,5.5,0,0,1-11,0v-8A5.5,5.5,0,0,1,5.5,0Z" transform="translate(0.106 48.716)"/><path class="a" d="M5.5,0A5.5,5.5,0,0,1,11,5.5v8a5.5,5.5,0,0,1-11,0v-8A5.5,5.5,0,0,1,5.5,0Z" transform="translate(0.106 71.716)"/></g></svg>