<?xml version="1.0" encoding="utf-8"?>
<!-- Generator: Adobe Illustrator 24.0.1, SVG Export Plug-In . SVG Version: 6.00 Build 0)  -->
<svg version="1.1" id="Calque_1" xmlns="http://www.w3.org/2000/svg" xmlns:xlink="http://www.w3.org/1999/xlink" x="0px" y="0px"
	 viewBox="0 0 686.5 1053.9" style="enable-background:new 0 0 686.5 1053.9;" xml:space="preserve">
<style type="text/css">
	.st0{fill:none;stroke:#429A2F;stroke-width:11;stroke-miterlimit:4.0005;}
	.st1{fill:url(#SVGID_1_);}
	.st2{fill:url(#SVGID_2_);}
	.st3{fill:url(#SVGID_3_);}
</style>
<path class="st0" d="M391.6-18.8c0,0-257.7,14.5-285.3,123.7c-26.5,157.8,487.6,254.8,463,397.6C545.9,694.8,49.6,732.3,108.7,910.8
	c58.9,124.4,119.7,161.4,198.3,180.8"/>
<linearGradient id="SVGID_1_" gradientUnits="userSpaceOnUse" x1="50.6219" y1="947.3898" x2="50.6219" y2="946.3898" gradientTransform="matrix(90.6 0 0 -210 -4032 198951.8438)">
	<stop  offset="0" style="stop-color:#F6F6F6"/>
	<stop  offset="0.602" style="stop-color:#F6F6F6"/>
	<stop  offset="1" style="stop-color:#F6F6F6;stop-opacity:0"/>
</linearGradient>
<path class="st1" d="M599.6,0v210H551V39h-42V0H599.6z"/>
<linearGradient id="SVGID_2_" gradientUnits="userSpaceOnUse" x1="45.898" y1="945.5928" x2="45.898" y2="944.5928" gradientTransform="matrix(168.3 0 0 -213.6 -7528.5 202360.6562)">
	<stop  offset="0" style="stop-color:#F6F6F6"/>
	<stop  offset="0.653" style="stop-color:#F6F6F6"/>
	<stop  offset="1" style="stop-color:#F6F6F6;stop-opacity:0"/>
</linearGradient>
<path class="st2" d="M280.3,556v39.6H121.6v-31.5l81-76.5c8.6-8.2,14.4-15.2,17.4-21.1c2.9-5.4,4.4-11.4,4.5-17.6
	c0-8.4-2.8-14.9-8.6-19.4c-5.7-4.5-14.1-6.8-25.1-6.8c-8.6-0.1-17.1,1.7-24.9,5.2c-7.5,3.6-13.9,9-18.6,15.8L112,421
	c8.2-12.2,19.5-21.8,33.9-28.6c14.4-6.9,30.9-10.4,49.5-10.4c15.6,0,29.2,2.5,40.9,7.6c11.7,5.1,20.8,12.3,27.3,21.6
	c6.5,9.3,9.8,20.2,9.8,32.9c0.1,11.1-2.4,22.1-7.2,32.1c-4.8,10-14.1,21.4-27.9,34.2L190,556H280.3z"/>
<linearGradient id="SVGID_3_" gradientUnits="userSpaceOnUse" x1="47.8192" y1="943.8195" x2="47.8192" y2="942.8195" gradientTransform="matrix(167.1013 0 0 -213.6 -7474.5566 202360.6719)">
	<stop  offset="0" style="stop-color:#F6F6F6"/>
	<stop  offset="0.803" style="stop-color:#F6F6F6;stop-opacity:0.451"/>
	<stop  offset="1" style="stop-color:#F6F6F6;stop-opacity:0"/>
</linearGradient>
<path class="st3" d="M542.6,846.3c18.4,3,32.5,9.8,42.3,20.5s14.7,24,14.7,39.8c0.1,11.9-3.3,23.6-9.6,33.8
	c-6.4,10.3-16.1,18.5-29.2,24.8c-13.1,6.2-29.2,9.3-48.1,9.3c-14.7,0-29.4-2-43.7-5.8c-14.3-3.9-26.4-9.5-36.4-16.7l18.9-37.2
	c8.4,6.2,17.8,10.9,27.8,13.9c10.4,3.3,21.3,5,32.2,5c12.2,0,21.8-2.3,28.8-7s10.5-11.3,10.5-20c0-17.2-13.1-25.8-39.3-25.8h-22.2
	v-32.1l43.2-48.9H443v-39h147v31.5L542.6,846.3z"/>
</svg>
