<svg xmlns="http://www.w3.org/2000/svg" xmlns:xlink="http://www.w3.org/1999/xlink" width="168.3" height="213.6" viewBox="0 0 168.3 213.6"><defs><style>.a{fill:url(#a);}</style><linearGradient id="a" x1="0.5" x2="0.5" y2="1" gradientUnits="objectBoundingBox"><stop offset="0" stop-color="#f6f6f6"/><stop offset="0.653" stop-color="#f6f6f6"/><stop offset="1" stop-color="#f6f6f6" stop-opacity="0"/></linearGradient></defs><path class="a" d="M168.6-39.6V0H9.9V-31.5l81-76.5q12.9-12.3,17.4-21.15a38.472,38.472,0,0,0,4.5-17.55q0-12.6-8.55-19.35T79.2-172.8a57.524,57.524,0,0,0-24.9,5.25A47.683,47.683,0,0,0,35.7-151.8L.3-174.6q12.3-18.3,33.9-28.65T83.7-213.6q23.4,0,40.95,7.65t27.3,21.6q9.75,13.95,9.75,32.85a73.226,73.226,0,0,1-7.2,32.1q-7.2,15-27.9,34.2L78.3-39.6Z" transform="translate(-0.3 213.6)"/></svg>