<svg xmlns="http://www.w3.org/2000/svg" xmlns:xlink="http://www.w3.org/1999/xlink" width="167.1" height="213.6" viewBox="0 0 167.1 213.6"><defs><style>.a{fill:url(#a);}</style><linearGradient id="a" x1="0.5" x2="0.5" y2="1" gradientUnits="objectBoundingBox"><stop offset="0" stop-color="#f6f6f6"/><stop offset="0.803" stop-color="#f6f6f6" stop-opacity="0.451"/><stop offset="1" stop-color="#f6f6f6" stop-opacity="0"/></linearGradient></defs><path class="a" d="M109.8-124.5q27.6,4.5,42.3,20.55T166.8-64.2a62.73,62.73,0,0,1-9.6,33.75Q147.6-15,127.95-5.7T79.8,3.6A165.167,165.167,0,0,1,36.15-2.25Q14.7-8.1-.3-18.9L18.6-56.1A91.566,91.566,0,0,0,46.35-42.15,106.944,106.944,0,0,0,78.6-37.2q18.3,0,28.8-7.05T117.9-64.2Q117.9-90,78.6-90H56.4v-32.1L99.6-171H10.2v-39h147v31.5Z" transform="translate(0.3 210)"/></svg>